PathFileType	4	(X/Y/Z)	S:\OneDrive - The University of Tokyo\ìåëÂéˆã∆\ÉoÉCÉÅÉJ\ë™íË\hirabayashi_2\Trimmed\Trimmed_BarR20kg1.trc
DataRate	CameraRate	NumFrames	NumMarkers	Units	OrigDataRate	OrigDataStartFrame	OrigNumFrames
200.00	200.00	       17	12	mm	200.00	274	       313
Frame#	Time	BarR0			BarR50			BarR100			BarR130			BarR180			BarR230			BarL0			BarL50			BarL100			BarL130			BarL180			BarL230			
		X1	Y1	Z1	X2	Y2	Z2	X3	Y3	Z3	X4	Y4	Z4	X5	Y5	Z5	X6	Y6	Z6	X7	Y7	Z7	X8	Y8	Z8	X9	Y9	Z9	X10	Y10	Z10	X11	Y11	Z11	X12	Y12	Z12	

274	1.365	-576.33691	2754.90649	1664.21863	-603.87903	2305.62842	1657.82813	-637.88562	1851.81653	1654.50732	-660.48767	1349.62402	1654.42688	-689.75348	902.98828	1658.46313	-713.76691	455.07410	1664.12085	-1113.49097	2808.13623	1664.64148	-1140.76892	2356.47681	1667.93884	-1171.28601	1906.03674	1668.91333	-1198.99548	1404.25830	1669.26282	-1226.82788	952.63763	1668.41235	-1244.70288	506.46835	1667.66150	
275	1.370	-576.34637	2754.90259	1664.23108	-603.90906	2305.62646	1657.83398	-637.89758	1851.81738	1654.51331	-660.46893	1349.59302	1654.43408	-689.77441	902.97186	1658.47607	-713.77612	455.07901	1664.11853	-1113.47437	2808.16235	1664.65356	-1140.77087	2356.52051	1667.95874	-1171.26196	1906.03320	1668.92480	-1199.00293	1404.28186	1669.25085	-1226.81628	952.63477	1668.41101	-1244.69421	506.45465	1667.64307	
276	1.375	-576.36017	2754.90405	1664.22522	-603.89758	2305.63110	1657.81079	-637.87561	1851.83264	1654.50244	-660.49805	1349.61328	1654.42175	-689.76428	902.97058	1658.46448	-713.78259	455.08926	1664.10876	-1113.50598	2808.15112	1664.66296	-1140.76941	2356.50000	1667.93945	-1171.27954	1906.02356	1668.91663	-1199.00171	1404.25403	1669.24377	-1226.83752	952.64307	1668.40845	-1244.71045	506.46603	1667.65515	
277	1.380	-576.35919	2754.90576	1664.23071	-603.86676	2305.64331	1657.82056	-637.91821	1851.82593	1654.50171	-660.48578	1349.59033	1654.42297	-689.78253	902.99640	1658.46460	-713.77875	455.07816	1664.12158	-1113.52258	2808.16919	1664.65540	-1140.76794	2356.50073	1667.94556	-1171.27563	1906.04858	1668.91443	-1198.99438	1404.27441	1669.26624	-1226.82556	952.64130	1668.40601	-1244.71362	506.47067	1667.66064	
278	1.385	-576.33862	2754.88477	1664.24219	-603.89087	2305.65234	1657.82068	-637.87762	1851.83350	1654.49377	-660.49792	1349.60889	1654.42529	-689.77844	902.97168	1658.46851	-713.77850	455.07401	1664.12170	-1113.46716	2808.14087	1664.65808	-1140.76501	2356.51782	1667.95117	-1171.27124	1906.06128	1668.93091	-1198.99121	1404.27759	1669.24084	-1226.83069	952.62659	1668.41357	-1244.71851	506.47290	1667.66272	
279	1.390	-576.34320	2754.90356	1664.23315	-603.88763	2305.62109	1657.79858	-637.95020	1851.83020	1654.48657	-660.48718	1349.61218	1654.44629	-689.76294	902.97412	1658.47144	-713.78687	455.07031	1664.12109	-1113.49756	2808.13623	1664.66162	-1140.77551	2356.51245	1667.95544	-1171.28540	1906.03088	1668.92419	-1198.99915	1404.25916	1669.26379	-1226.81824	952.63519	1668.41235	-1244.70520	506.45621	1667.64551	
280	1.395	-576.35986	2754.94092	1664.21826	-603.88794	2305.64136	1657.82007	-637.90771	1851.84241	1654.49707	-660.47986	1349.61548	1654.41357	-689.78693	902.96680	1658.47131	-713.75342	455.05411	1664.11621	-1113.51038	2808.17456	1664.66968	-1140.76550	2356.49805	1667.94995	-1171.28333	1906.04248	1668.90295	-1199.00513	1404.32166	1669.26489	-1226.82202	952.65234	1668.42004	-1244.71338	506.44971	1667.65381	
281	1.400	-576.34686	2754.90234	1664.23938	-603.89252	2305.62378	1657.83789	-637.90051	1851.82153	1654.49951	-660.49384	1349.61682	1654.42395	-689.76959	902.96417	1658.48096	-713.75775	455.05875	1664.11121	-1113.50439	2808.14404	1664.66626	-1140.76636	2356.51196	1667.94397	-1171.28113	1906.03467	1668.90820	-1199.00476	1404.26196	1669.24292	-1226.83411	952.63733	1668.40845	-1244.70862	506.46652	1667.64172	
282	1.405	-576.35083	2754.90332	1664.23193	-603.88354	2305.62329	1657.82068	-637.88739	1851.80847	1654.51233	-660.48547	1349.58887	1654.41516	-689.77802	902.98138	1658.47314	-713.78967	455.06570	1664.12048	-1113.50574	2808.15137	1664.67615	-1140.77820	2356.51172	1667.94690	-1171.27734	1906.04150	1668.92053	-1198.98364	1404.26587	1669.25391	-1226.83630	952.63068	1668.40491	-1244.69812	506.45554	1667.65710	
283	1.410	-576.35229	2754.91699	1664.22876	-603.89703	2305.65063	1657.82483	-637.87823	1851.82019	1654.50024	-660.49957	1349.61157	1654.42578	-689.76398	902.95880	1658.47717	-713.77698	455.07605	1664.12598	-1113.49622	2808.10938	1664.66321	-1140.77771	2356.50366	1667.94543	-1171.27856	1906.05261	1668.92102	-1199.00293	1404.28491	1669.25281	-1226.81750	952.63678	1668.41284	-1244.71033	506.47006	1667.66406	
284	1.415	-576.34277	2754.88770	1664.23840	-603.87573	2305.64795	1657.80811	-637.88580	1851.83008	1654.50635	-660.48615	1349.60046	1654.42090	-689.74939	902.99713	1658.48523	-713.76862	455.08612	1664.12817	-1113.48389	2808.16455	1664.67957	-1140.76929	2356.51489	1667.94812	-1171.27026	1906.04248	1668.92932	-1198.99048	1404.26257	1669.25366	-1226.83044	952.63794	1668.42273	-1244.70935	506.47806	1667.65747	
285	1.420	-576.35126	2754.91309	1664.23584	-603.88599	2305.64111	1657.81921	-637.91040	1851.83850	1654.48633	-660.48663	1349.61743	1654.41980	-689.77026	902.97247	1658.47449	-713.77502	455.07941	1664.12476	-1113.49939	2808.18262	1664.64880	-1140.76208	2356.51367	1667.94275	-1171.28442	1906.02417	1668.92798	-1199.01099	1404.28271	1669.25696	-1226.83289	952.61859	1668.40259	-1244.70447	506.46869	1667.64771	
286	1.425	-576.34894	2754.91089	1664.22974	-603.87372	2305.63306	1657.83630	-637.90326	1851.81677	1654.49817	-660.48291	1349.58069	1654.43347	-689.78088	902.97076	1658.47021	-713.77545	455.06876	1664.12305	-1113.48267	2808.18481	1664.67407	-1140.77417	2356.50171	1667.93030	-1171.27893	1906.05139	1668.92871	-1198.99927	1404.29675	1669.25256	-1226.83398	952.63434	1668.40747	-1244.69666	506.45639	1667.66406	
287	1.430	-576.35962	2754.91992	1664.21973	-603.90765	2305.62378	1657.80823	-637.90948	1851.83557	1654.49377	-660.50049	1349.59546	1654.42090	-689.77289	902.98224	1658.45996	-713.75885	455.08167	1664.12207	-1113.48926	2808.16089	1664.66858	-1140.77319	2356.52197	1667.95618	-1171.26697	1906.00879	1668.91333	-1198.97009	1404.25818	1669.25244	-1226.83435	952.64191	1668.40833	-1244.69934	506.47049	1667.66016	
288	1.435	-576.35535	2754.91650	1664.23218	-603.90759	2305.64038	1657.80518	-637.86426	1851.80627	1654.51416	-660.48834	1349.59937	1654.42322	-689.76031	902.99786	1658.48022	-713.77246	455.05435	1664.12073	-1113.50146	2808.15942	1664.67651	-1140.76770	2356.50952	1667.95300	-1171.27466	1906.05505	1668.92285	-1199.00598	1404.29456	1669.25464	-1226.83130	952.62964	1668.40637	-1244.71191	506.45334	1667.65234	
289	1.440	-576.34003	2754.90088	1664.22693	-603.90051	2305.63232	1657.82080	-637.90259	1851.80969	1654.50049	-660.48315	1349.60132	1654.42737	-689.78601	903.00378	1658.45081	-713.75476	455.05960	1664.11743	-1113.47192	2808.18066	1664.67542	-1140.77808	2356.50464	1667.94067	-1171.26025	1906.04065	1668.93018	-1198.98328	1404.28284	1669.25317	-1226.83606	952.63556	1668.41858	-1244.69482	506.45654	1667.65881	
290	1.445	-576.34766	2754.90356	1664.22131	-603.90118	2305.63770	1657.84180	-637.88947	1851.80566	1654.49805	-660.49164	1349.61328	1654.43298	-689.74731	902.98779	1658.47742	-713.78015	455.08136	1664.11816	-1113.48645	2808.16357	1664.66614	-1140.75366	2356.50952	1667.94434	-1171.25781	1906.02283	1668.93018	-1198.99731	1404.29736	1669.25977	-1226.83276	952.64618	1668.41333	-1244.69678	506.47372	1667.65369	
